<svg width="214" height="48" viewBox="0 0 214 48" fill="none" xmlns="http://www.w3.org/2000/svg" role="img" aria-label="PayGate wordmark">
  <defs>
    <linearGradient id="pg-wordmark-fill" x1="122" y1="94" x2="390" y2="420" gradientUnits="userSpaceOnUse">
      <stop offset="0" stop-color="#B26BFF"/>
      <stop offset="0.46" stop-color="#7C3AED"/>
      <stop offset="1" stop-color="#4F8DFF"/>
    </linearGradient>
    <linearGradient id="pg-wordmark-depth" x1="214" y1="202" x2="344" y2="360" gradientUnits="userSpaceOnUse">
      <stop offset="0" stop-color="#070A12" stop-opacity="0.18"/>
      <stop offset="0.64" stop-color="#070A12" stop-opacity="0.72"/>
      <stop offset="1" stop-color="#070A12" stop-opacity="0.96"/>
    </linearGradient>
    <linearGradient id="pg-wordmark-cyan" x1="226" y1="292" x2="380" y2="314" gradientUnits="userSpaceOnUse">
      <stop offset="0" stop-color="#F8FAFC"/>
      <stop offset="0.36" stop-color="#22D3EE"/>
      <stop offset="1" stop-color="#67E8F9"/>
    </linearGradient>
  </defs>
  <g transform="translate(0 2) scale(0.0859375)">
    <path fill="url(#pg-wordmark-fill)" fill-rule="evenodd" d="M132 438V158L186 104H316C406 104 462 161 462 242C462 323 406 380 316 380H222L132 438ZM222 196V292H314C352 292 376 274 376 242C376 210 352 196 314 196H222Z" clip-rule="evenodd"/>
    <path fill="url(#pg-wordmark-depth)" d="M222 294H314C352 294 376 274 376 242C376 304 336 348 274 348H222V294Z"/>
    <path d="M232 306H340" stroke="#06070C" stroke-width="30" stroke-linecap="round"/>
    <path d="M232 306H340" stroke="url(#pg-wordmark-cyan)" stroke-width="14" stroke-linecap="round"/>
    <circle cx="366" cy="306" r="30" fill="#06070C"/>
    <circle cx="366" cy="306" r="21" fill="url(#pg-wordmark-cyan)"/>
    <circle cx="366" cy="306" r="9" fill="#06070C"/>
  </g>
  <text x="54" y="31" fill="#F7F8FB" font-family="DM Sans, ui-sans-serif, system-ui, -apple-system, BlinkMacSystemFont, Segoe UI, sans-serif" font-size="24" font-weight="800" letter-spacing="-0.4">PayGate</text>
</svg>
