<svg width="512" height="512" viewBox="0 0 512 512" fill="none" xmlns="http://www.w3.org/2000/svg" role="img" aria-label="PayGate avatar">
  <defs>
    <radialGradient id="pg-avatar-violet" cx="0" cy="0" r="1" gradientUnits="userSpaceOnUse" gradientTransform="translate(216 188) rotate(62) scale(226)">
      <stop offset="0" stop-color="#7C3AED" stop-opacity="0.42"/>
      <stop offset="1" stop-color="#7C3AED" stop-opacity="0"/>
    </radialGradient>
    <radialGradient id="pg-avatar-cyan" cx="0" cy="0" r="1" gradientUnits="userSpaceOnUse" gradientTransform="translate(358 328) rotate(42) scale(160)">
      <stop offset="0" stop-color="#22D3EE" stop-opacity="0.22"/>
      <stop offset="1" stop-color="#22D3EE" stop-opacity="0"/>
    </radialGradient>
    <linearGradient id="pg-avatar-ring" x1="96" y1="72" x2="416" y2="444" gradientUnits="userSpaceOnUse">
      <stop offset="0" stop-color="#2A1A46"/>
      <stop offset="0.5" stop-color="#141820"/>
      <stop offset="1" stop-color="#22D3EE" stop-opacity="0.5"/>
    </linearGradient>
    <linearGradient id="pg-avatar-mark-fill" x1="122" y1="94" x2="390" y2="420" gradientUnits="userSpaceOnUse">
      <stop offset="0" stop-color="#B26BFF"/>
      <stop offset="0.46" stop-color="#7C3AED"/>
      <stop offset="1" stop-color="#4F8DFF"/>
    </linearGradient>
    <linearGradient id="pg-avatar-mark-depth" x1="214" y1="202" x2="344" y2="360" gradientUnits="userSpaceOnUse">
      <stop offset="0" stop-color="#070A12" stop-opacity="0.18"/>
      <stop offset="0.64" stop-color="#070A12" stop-opacity="0.72"/>
      <stop offset="1" stop-color="#070A12" stop-opacity="0.96"/>
    </linearGradient>
    <linearGradient id="pg-avatar-mark-cyan" x1="226" y1="292" x2="380" y2="314" gradientUnits="userSpaceOnUse">
      <stop offset="0" stop-color="#F8FAFC"/>
      <stop offset="0.36" stop-color="#22D3EE"/>
      <stop offset="1" stop-color="#67E8F9"/>
    </linearGradient>
    <filter id="pg-avatar-mark-glow" x="64" y="52" width="400" height="424" filterUnits="userSpaceOnUse" color-interpolation-filters="sRGB">
      <feGaussianBlur in="SourceAlpha" stdDeviation="10" result="blur"/>
      <feColorMatrix in="blur" type="matrix" values="0 0 0 0 0.486 0 0 0 0 0.227 0 0 0 0 0.929 0 0 0 0.42 0"/>
      <feBlend in2="SourceGraphic" mode="screen"/>
    </filter>
  </defs>

  <circle cx="256" cy="256" r="228" fill="#07080C"/>
  <circle cx="256" cy="256" r="228" fill="url(#pg-avatar-violet)"/>
  <circle cx="256" cy="256" r="228" fill="url(#pg-avatar-cyan)"/>
  <circle cx="256" cy="256" r="226" stroke="url(#pg-avatar-ring)" stroke-width="2"/>
  <circle cx="256" cy="256" r="184" stroke="#F8FAFC" stroke-opacity="0.05" stroke-width="1" stroke-dasharray="3 12"/>
  <g transform="translate(76 54) scale(0.703125)" filter="url(#pg-avatar-mark-glow)">
    <path fill="url(#pg-avatar-mark-fill)" fill-rule="evenodd" d="M132 438V158L186 104H316C406 104 462 161 462 242C462 323 406 380 316 380H222L132 438ZM222 196V292H314C352 292 376 274 376 242C376 210 352 196 314 196H222Z" clip-rule="evenodd"/>
    <path fill="url(#pg-avatar-mark-depth)" d="M222 294H314C352 294 376 274 376 242C376 304 336 348 274 348H222V294Z"/>
    <path d="M232 306H340" stroke="#06070C" stroke-width="30" stroke-linecap="round"/>
    <path d="M232 306H340" stroke="url(#pg-avatar-mark-cyan)" stroke-width="14" stroke-linecap="round"/>
    <circle cx="366" cy="306" r="30" fill="#06070C"/>
    <circle cx="366" cy="306" r="21" fill="url(#pg-avatar-mark-cyan)"/>
    <circle cx="366" cy="306" r="9" fill="#06070C"/>
    <path d="M132 158L186 104H232L176 160V420L132 438V158Z" fill="#D8C6FF" opacity="0.16"/>
  </g>
</svg>
