<svg width="1024" height="1024" viewBox="0 0 1024 1024" fill="none" xmlns="http://www.w3.org/2000/svg" role="img" aria-label="PayGate open gate P logo concept">
  <defs>
    <radialGradient id="bg-violet" cx="0" cy="0" r="1" gradientUnits="userSpaceOnUse" gradientTransform="translate(402 418) rotate(58) scale(430 430)">
      <stop offset="0" stop-color="#7C3AED" stop-opacity="0.34"/>
      <stop offset="0.64" stop-color="#7C3AED" stop-opacity="0.11"/>
      <stop offset="1" stop-color="#7C3AED" stop-opacity="0"/>
    </radialGradient>
    <radialGradient id="bg-cyan" cx="0" cy="0" r="1" gradientUnits="userSpaceOnUse" gradientTransform="translate(704 506) rotate(42) scale(280 280)">
      <stop offset="0" stop-color="#22D3EE" stop-opacity="0.22"/>
      <stop offset="1" stop-color="#22D3EE" stop-opacity="0"/>
    </radialGradient>
    <pattern id="grid" width="48" height="48" patternUnits="userSpaceOnUse">
      <circle cx="1" cy="1" r="1.2" fill="#F8FAFC" opacity="0.08"/>
    </pattern>
    <linearGradient id="mark" x1="314" y1="220" x2="800" y2="758" gradientUnits="userSpaceOnUse">
      <stop offset="0" stop-color="#A78BFA"/>
      <stop offset="0.38" stop-color="#7C3AED"/>
      <stop offset="1" stop-color="#22D3EE"/>
    </linearGradient>
    <linearGradient id="edge" x1="686" y1="370" x2="748" y2="482" gradientUnits="userSpaceOnUse">
      <stop offset="0" stop-color="#F8FAFC"/>
      <stop offset="1" stop-color="#22D3EE"/>
    </linearGradient>
    <filter id="shadow" x="180" y="146" width="704" height="752" filterUnits="userSpaceOnUse" color-interpolation-filters="sRGB">
      <feDropShadow dx="0" dy="30" stdDeviation="32" flood-color="#000000" flood-opacity="0.5"/>
    </filter>
    <filter id="glow" x="250" y="150" width="638" height="712" filterUnits="userSpaceOnUse" color-interpolation-filters="sRGB">
      <feGaussianBlur in="SourceAlpha" stdDeviation="14" result="blur"/>
      <feColorMatrix in="blur" type="matrix" values="0 0 0 0 0.486 0 0 0 0 0.227 0 0 0 0 0.929 0 0 0 0.5 0"/>
      <feBlend in2="SourceGraphic" mode="screen"/>
    </filter>
  </defs>

  <rect width="1024" height="1024" fill="#080808"/>
  <rect width="1024" height="1024" fill="url(#grid)"/>
  <rect width="1024" height="1024" fill="url(#bg-violet)"/>
  <rect width="1024" height="1024" fill="url(#bg-cyan)"/>
  <circle cx="512" cy="512" r="360" fill="#0F0F0F" opacity="0.72"/>

  <g filter="url(#shadow)">
    <g filter="url(#glow)">
      <path fill="url(#mark)" fill-rule="evenodd" d="M322 788V294C322 249.8 357.8 214 402 214H580C728 214 816 302.4 816 424C816 545.6 728 634 580 634H462V788H322ZM462 336V512H580C648.8 512 694 478 694 424C694 370 648.8 336 580 336H462Z"/>
      <rect x="704" y="386" width="142" height="76" rx="38" fill="#080808"/>
      <rect x="700" y="382" width="24" height="84" rx="12" fill="url(#edge)"/>
      <circle cx="738" cy="424" r="18" fill="#22D3EE"/>
      <circle cx="738" cy="424" r="7" fill="#080808"/>
    </g>
  </g>
</svg>
